G04 ================== begin FILE IDENTIFICATION RECORD ==================*
G04 Layout Name:  C:/work/cam/pcb-delay/allegro/DELAY.brd*
G04 Film Name:    delay_Soldermask_bot*
G04 File Format:  Gerber RS274X*
G04 File Origin:  Cadence Allegro 16.6-S023*
G04 Origin Date:  Wed Feb 26 20:44:03 2014*
G04 *
G04 Layer:  PIN/SOLDERMASK_BOTTOM*
G04 Layer:  VIA CLASS/SOLDERMASK_BOTTOM*
G04 Layer:  PACKAGE GEOMETRY/SOLDERMASK_BOTTOM*
G04 Layer:  BOARD GEOMETRY/SOLDERMASK_BOTTOM*
G04 *
G04 Offset:    (0.0000 0.0000)*
G04 Mirror:    No*
G04 Mode:      Positive*
G04 Rotation:  0*
G04 FullContactRelief:  No*
G04 UndefLineWidth:     0.0250*
G04 ================== end FILE IDENTIFICATION RECORD ====================*
%FSLAX25Y25*MOMM*%
%IR0*IPPOS*OFA0.00000B0.00000*MIA0B0*SFA1.00000B1.00000*%
%ADD10C,1.905*%
G75*
%LPD*%
G75*
G36*
G01X253400Y453420D02*
Y1114880D01*
X341590D01*
Y453420D01*
X253400D01*
G37*
G36*
G01X341590D02*
Y541610D01*
X438610D01*
Y453420D01*
X341590D01*
G37*
G36*
G01X438610Y638630D02*
Y929670D01*
X535620D01*
Y638630D01*
X438610D01*
G37*
G36*
G01Y453420D02*
Y541610D01*
X535620D01*
Y453420D01*
X438610D01*
G37*
G36*
G01X535620Y638630D02*
Y929670D01*
X632640D01*
Y638630D01*
X535620D01*
G37*
G36*
G01Y453420D02*
Y541610D01*
X632640D01*
Y453420D01*
X535620D01*
G37*
G36*
G01X632640Y638630D02*
Y929670D01*
X729650D01*
Y638630D01*
X632640D01*
G37*
G36*
G01Y453420D02*
Y541610D01*
X729650D01*
Y453420D01*
X632640D01*
G37*
G36*
G01X729650D02*
Y541610D01*
X817840D01*
Y453420D01*
X729650D01*
G37*
G36*
G01X817840D02*
Y1114880D01*
X914860D01*
Y453420D01*
X817840D01*
G37*
G36*
G01X341590Y1494100D02*
Y1591110D01*
X438610D01*
Y1494100D01*
X341590D01*
G37*
G36*
G01Y1308900D02*
Y1405920D01*
X438610D01*
Y1308900D01*
X341590D01*
G37*
G36*
G01Y1017860D02*
Y1114880D01*
X438610D01*
Y1017860D01*
X341590D01*
G37*
G36*
G01X438610Y1405920D02*
Y1688120D01*
X535620D01*
Y1405920D01*
X438610D01*
G37*
G36*
G01Y1211890D02*
Y1308900D01*
X535620D01*
Y1211890D01*
X438610D01*
G37*
G36*
G01Y1017860D02*
Y1114880D01*
X535620D01*
Y1017860D01*
X438610D01*
G37*
G36*
G01X535620Y1211890D02*
Y1688120D01*
X632640D01*
Y1211890D01*
X535620D01*
G37*
G36*
G01Y1017860D02*
Y1114880D01*
X632640D01*
Y1017860D01*
X535620D01*
G37*
G36*
G01X632640Y1405920D02*
Y1494100D01*
X729650D01*
Y1405920D01*
X632640D01*
G37*
G36*
G01Y1211890D02*
Y1308900D01*
X729650D01*
Y1211890D01*
X632640D01*
G37*
G36*
G01Y1017860D02*
Y1114880D01*
X729650D01*
Y1017860D01*
X632640D01*
G37*
G36*
G01X729650Y1211890D02*
Y1494100D01*
X817840D01*
Y1211890D01*
X729650D01*
G37*
G36*
G01Y1017860D02*
Y1114880D01*
X817840D01*
Y1017860D01*
X729650D01*
G37*
G36*
G01X817840Y1405920D02*
Y1494100D01*
X914860D01*
Y1405920D01*
X817840D01*
G37*
G36*
G01Y1211890D02*
Y1308900D01*
X914860D01*
Y1211890D01*
X817840D01*
G37*
G36*
G01X914860Y1494100D02*
Y1688120D01*
X1011870D01*
Y1494100D01*
X914860D01*
G37*
G36*
G01Y1211890D02*
Y1308900D01*
X1011870D01*
Y1211890D01*
X914860D01*
G37*
G36*
G01X253400Y1785140D02*
Y2446600D01*
X341590D01*
Y1785140D01*
X253400D01*
G37*
G36*
G01Y1591110D02*
Y1688120D01*
X341590D01*
Y1591110D01*
X253400D01*
G37*
G36*
G01X341590Y1785140D02*
Y1882150D01*
X438610D01*
Y1785140D01*
X341590D01*
G37*
G36*
G01X438610Y1970350D02*
Y2261390D01*
X535620D01*
Y1970350D01*
X438610D01*
G37*
G36*
G01Y1785140D02*
Y1882150D01*
X535620D01*
Y1785140D01*
X438610D01*
G37*
G36*
G01X535620Y1970350D02*
Y2261390D01*
X632640D01*
Y1970350D01*
X535620D01*
G37*
G36*
G01Y1785140D02*
Y1882150D01*
X632640D01*
Y1785140D01*
X535620D01*
G37*
G36*
G01X632640Y1970350D02*
Y2261390D01*
X729650D01*
Y1970350D01*
X632640D01*
G37*
G36*
G01Y1785140D02*
Y1882150D01*
X729650D01*
Y1785140D01*
X632640D01*
G37*
G36*
G01X729650D02*
Y1882150D01*
X817840D01*
Y1785140D01*
X729650D01*
G37*
G36*
G01Y1591110D02*
Y1688120D01*
X817840D01*
Y1591110D01*
X729650D01*
G37*
G36*
G01X817840Y1785140D02*
Y2446600D01*
X914860D01*
Y1785140D01*
X817840D01*
G37*
G36*
G01Y1591110D02*
Y1688120D01*
X914860D01*
Y1591110D01*
X817840D01*
G37*
G36*
G01X341590Y2358400D02*
Y2446600D01*
X438610D01*
Y2358400D01*
X341590D01*
G37*
G36*
G01X438610D02*
Y2446600D01*
X535620D01*
Y2358400D01*
X438610D01*
G37*
G36*
G01X535620D02*
Y2446600D01*
X632640D01*
Y2358400D01*
X535620D01*
G37*
G36*
G01X632640D02*
Y2446600D01*
X729650D01*
Y2358400D01*
X632640D01*
G37*
G36*
G01X729650D02*
Y2446600D01*
X817840D01*
Y2358400D01*
X729650D01*
G37*
G36*
G01X1011870Y638630D02*
Y832650D01*
X1108890D01*
Y638630D01*
X1011870D01*
G37*
G36*
G01Y453420D02*
Y541610D01*
X1108890D01*
Y453420D01*
X1011870D01*
G37*
G36*
G01X1108890Y832650D02*
Y1017860D01*
X1205900D01*
Y832650D01*
X1108890D01*
G37*
G36*
G01Y453420D02*
Y638630D01*
X1205900D01*
Y453420D01*
X1108890D01*
G37*
G36*
G01X1205900D02*
Y1017860D01*
X1294090D01*
Y453420D01*
X1205900D01*
G37*
G36*
G01X1294090D02*
Y638630D01*
X1391110D01*
Y453420D01*
X1294090D01*
G37*
G36*
G01X1391110Y541610D02*
Y929670D01*
X1488120D01*
Y541610D01*
X1391110D01*
G37*
G36*
G01X1488120Y453420D02*
Y1114880D01*
X1585140D01*
Y453420D01*
X1488120D01*
G37*
G36*
G01X1011870Y1308900D02*
Y1405920D01*
X1108890D01*
Y1308900D01*
X1011870D01*
G37*
G36*
G01Y929670D02*
Y1211890D01*
X1108890D01*
Y929670D01*
X1011870D01*
G37*
G36*
G01X1108890Y1494100D02*
Y1785140D01*
X1205900D01*
Y1494100D01*
X1108890D01*
G37*
G36*
G01X1205900Y1308900D02*
Y1494100D01*
X1294090D01*
Y1308900D01*
X1205900D01*
G37*
G36*
G01Y1114880D02*
Y1211890D01*
X1294090D01*
Y1114880D01*
X1205900D01*
G37*
G36*
G01X1294090Y1017860D02*
Y1308900D01*
X1391110D01*
Y1017860D01*
X1294090D01*
G37*
G36*
G01X1391110Y1308900D02*
Y1405920D01*
X1488120D01*
Y1308900D01*
X1391110D01*
G37*
G36*
G01Y1114880D02*
Y1211890D01*
X1488120D01*
Y1114880D01*
X1391110D01*
G37*
G36*
G01X1488120Y1405920D02*
Y1494100D01*
X1585140D01*
Y1405920D01*
X1488120D01*
G37*
G36*
G01X1011870Y2067360D02*
Y2164370D01*
X1108890D01*
Y2067360D01*
X1011870D01*
G37*
G36*
G01Y1688120D02*
Y1882150D01*
X1108890D01*
Y1688120D01*
X1011870D01*
G37*
G36*
G01X1108890Y1970350D02*
Y2067360D01*
X1205900D01*
Y1970350D01*
X1108890D01*
G37*
G36*
G01X1205900Y2164370D02*
Y2261390D01*
X1294090D01*
Y2164370D01*
X1205900D01*
G37*
G36*
G01Y1970350D02*
Y2067360D01*
X1294090D01*
Y1970350D01*
X1205900D01*
G37*
G36*
G01Y1785140D02*
Y1882150D01*
X1294090D01*
Y1785140D01*
X1205900D01*
G37*
G36*
G01Y1591110D02*
Y1688120D01*
X1294090D01*
Y1591110D01*
X1205900D01*
G37*
G36*
G01X1294090Y1970350D02*
Y2067360D01*
X1391110D01*
Y1970350D01*
X1294090D01*
G37*
G36*
G01Y1591110D02*
Y1785140D01*
X1391110D01*
Y1591110D01*
X1294090D01*
G37*
G36*
G01X1391110Y2067360D02*
Y2446600D01*
X1488120D01*
Y2067360D01*
X1391110D01*
G37*
G36*
G01Y1785140D02*
Y1882150D01*
X1488120D01*
Y1785140D01*
X1391110D01*
G37*
G36*
G01Y1591110D02*
Y1688120D01*
X1488120D01*
Y1591110D01*
X1391110D01*
G37*
G36*
G01X1011870Y2261390D02*
Y2446600D01*
X1108890D01*
Y2261390D01*
X1011870D01*
G37*
G36*
G01X1108890D02*
Y2446600D01*
X1205900D01*
Y2261390D01*
X1108890D01*
G37*
G36*
G01X1205900Y2358400D02*
Y2446600D01*
X1294090D01*
Y2358400D01*
X1205900D01*
G37*
G36*
G01X1585140Y453420D02*
Y735640D01*
X1682150D01*
Y453420D01*
X1585140D01*
G37*
G36*
G01X1682150Y832650D02*
Y929670D01*
X1770340D01*
Y832650D01*
X1682150D01*
G37*
G36*
G01Y638630D02*
Y735640D01*
X1770340D01*
Y638630D01*
X1682150D01*
G37*
G36*
G01X1770340Y832650D02*
Y1308900D01*
X1867360D01*
Y832650D01*
X1770340D01*
G37*
G36*
G01Y541610D02*
Y638630D01*
X1867360D01*
Y541610D01*
X1770340D01*
G37*
G36*
G01X1867360Y453420D02*
Y638630D01*
X1964370D01*
Y453420D01*
X1867360D01*
G37*
G36*
G01X1964370Y832650D02*
Y1017860D01*
X2061390D01*
Y832650D01*
X1964370D01*
G37*
G36*
G01Y638630D02*
Y735640D01*
X2061390D01*
Y638630D01*
X1964370D01*
G37*
G36*
G01Y453420D02*
Y541610D01*
X2061390D01*
Y453420D01*
X1964370D01*
G37*
G36*
G01X2061390Y735640D02*
Y929670D01*
X2158400D01*
Y735640D01*
X2061390D01*
G37*
G36*
G01X2158400Y541610D02*
Y638630D01*
X2246590D01*
Y541610D01*
X2158400D01*
G37*
G36*
G01X1585140Y1405920D02*
Y1688120D01*
X1682150D01*
Y1405920D01*
X1585140D01*
G37*
G36*
G01Y1211890D02*
Y1308900D01*
X1682150D01*
Y1211890D01*
X1585140D01*
G37*
G36*
G01Y1017860D02*
Y1114880D01*
X1682150D01*
Y1017860D01*
X1585140D01*
G37*
G36*
G01X1682150Y1308900D02*
Y1591110D01*
X1770340D01*
Y1308900D01*
X1682150D01*
G37*
G36*
G01X1770340Y1494100D02*
Y1591110D01*
X1867360D01*
Y1494100D01*
X1770340D01*
G37*
G36*
G01X1867360Y1211890D02*
Y1688120D01*
X1964370D01*
Y1211890D01*
X1867360D01*
G37*
G36*
G01Y929670D02*
Y1017860D01*
X1964370D01*
Y929670D01*
X1867360D01*
G37*
G36*
G01X1964370Y1494100D02*
Y1591110D01*
X2061390D01*
Y1494100D01*
X1964370D01*
G37*
G36*
G01X2061390Y1308900D02*
Y1688120D01*
X2158400D01*
Y1308900D01*
X2061390D01*
G37*
G36*
G01X2158400Y1405920D02*
Y1688120D01*
X2246590D01*
Y1405920D01*
X2158400D01*
G37*
G36*
G01Y1211890D02*
Y1308900D01*
X2246590D01*
Y1211890D01*
X2158400D01*
G37*
G36*
G01Y929670D02*
Y1017860D01*
X2246590D01*
Y929670D01*
X2158400D01*
G37*
G36*
G01X1585140Y1785140D02*
Y2446600D01*
X1682150D01*
Y1785140D01*
X1585140D01*
G37*
G36*
G01X1682150D02*
Y1882150D01*
X1770340D01*
Y1785140D01*
X1682150D01*
G37*
G36*
G01X1770340Y1970350D02*
Y2261390D01*
X1867360D01*
Y1970350D01*
X1770340D01*
G37*
G36*
G01Y1785140D02*
Y1882150D01*
X1867360D01*
Y1785140D01*
X1770340D01*
G37*
G36*
G01X1867360Y1970350D02*
Y2261390D01*
X1964370D01*
Y1970350D01*
X1867360D01*
G37*
G36*
G01Y1785140D02*
Y1882150D01*
X1964370D01*
Y1785140D01*
X1867360D01*
G37*
G36*
G01X1964370Y1970350D02*
Y2261390D01*
X2061390D01*
Y1970350D01*
X1964370D01*
G37*
G36*
G01Y1785140D02*
Y1882150D01*
X2061390D01*
Y1785140D01*
X1964370D01*
G37*
G36*
G01X2061390D02*
Y1882150D01*
X2158400D01*
Y1785140D01*
X2061390D01*
G37*
G36*
G01X2158400D02*
Y2446600D01*
X2246590D01*
Y1785140D01*
X2158400D01*
G37*
G36*
G01X1682150Y2358400D02*
Y2446600D01*
X1770340D01*
Y2358400D01*
X1682150D01*
G37*
G36*
G01X1770340D02*
Y2446600D01*
X1867360D01*
Y2358400D01*
X1770340D01*
G37*
G36*
G01X1867360D02*
Y2446600D01*
X1964370D01*
Y2358400D01*
X1867360D01*
G37*
G36*
G01X1964370D02*
Y2446600D01*
X2061390D01*
Y2358400D01*
X1964370D01*
G37*
G36*
G01X2061390D02*
Y2446600D01*
X2158400D01*
Y2358400D01*
X2061390D01*
G37*
G54D10*
X225000Y300000D03*
X1225000D03*
X2275000D03*
X1775000D03*
M02*
