G04 ================== begin FILE IDENTIFICATION RECORD ==================*
G04 Layout Name:  C:/work/cam/pcb-delay/allegro/DELAY.brd*
G04 Film Name:    delay_Silkscreen_top*
G04 File Format:  Gerber RS274X*
G04 File Origin:  Cadence Allegro 16.6-S023*
G04 Origin Date:  Wed Feb 26 20:44:03 2014*
G04 *
G04 Layer:  PACKAGE GEOMETRY/SILKSCREEN_TOP*
G04 Layer:  BOARD GEOMETRY/SILKSCREEN_TOP*
G04 Layer:  REF DES/SILKSCREEN_TOP*
G04 *
G04 Offset:    (0.0000 0.0000)*
G04 Mirror:    No*
G04 Mode:      Positive*
G04 Rotation:  0*
G04 FullContactRelief:  No*
G04 UndefLineWidth:     0.0250*
G04 ================== end FILE IDENTIFICATION RECORD ====================*
%FSLAX25Y25*MOMM*%
%IR0*IPPOS*OFA0.00000B0.00000*MIA0B0*SFA1.00000B1.00000*%
%ADD10C,.25*%
%ADD11C,.125*%
%ADD12C,.025*%
G75*
%LPD*%
G75*
G54D10*
G01X1500000Y1800000D02*
X0D01*
G01X1500000Y0D02*
Y1800000D01*
X2500000D01*
G54D11*
G01X96100Y75000D02*
Y153740D01*
X115570D01*
X123360Y149800D01*
X129200Y144550D01*
X134070Y136680D01*
X137970Y127490D01*
X138940Y114370D01*
X137970Y101250D01*
X134070Y92060D01*
X129200Y84180D01*
X123360Y78940D01*
X115570Y75000D01*
X96100D01*
G01X176790Y153740D02*
Y75000D01*
X215730D01*
G01X256500Y140620D02*
X262340Y148490D01*
X269160Y152430D01*
X276950Y153740D01*
X286680Y151120D01*
X293500Y144550D01*
X295450Y136680D01*
X294470Y128800D01*
X290580Y122240D01*
X271110Y109120D01*
X262340Y99930D01*
X256500Y86810D01*
X254550Y75000D01*
X295450D01*
G01X324530Y48750D02*
X382950D01*
G01X440270Y117000D02*
X444160Y120930D01*
X447080Y127490D01*
X449030Y136680D01*
X447080Y144550D01*
X443190Y149800D01*
X436370Y153740D01*
X410090D01*
Y75000D01*
X442220D01*
X449030Y80250D01*
X452930Y88120D01*
X454870Y97310D01*
X452930Y106490D01*
X447080Y114370D01*
X440270Y117000D01*
X410090D01*
G01X1546100Y75000D02*
Y153740D01*
X1565570D01*
X1573360Y149800D01*
X1579200Y144550D01*
X1584070Y136680D01*
X1587970Y127490D01*
X1588940Y114370D01*
X1587970Y101250D01*
X1584070Y92060D01*
X1579200Y84180D01*
X1573360Y78940D01*
X1565570Y75000D01*
X1546100D01*
G01X1626790Y153740D02*
Y75000D01*
X1665730D01*
G01X1725000D02*
Y153740D01*
X1713320Y137990D01*
G01Y75000D02*
X1736680D01*
G01X1774530Y48750D02*
X1832950D01*
G01X1890270Y117000D02*
X1894160Y120930D01*
X1897080Y127490D01*
X1899030Y136680D01*
X1897080Y144550D01*
X1893190Y149800D01*
X1886370Y153740D01*
X1860090D01*
Y75000D01*
X1892220D01*
X1899030Y80250D01*
X1902930Y88120D01*
X1904870Y97310D01*
X1902930Y106490D01*
X1897080Y114370D01*
X1890270Y117000D01*
X1860090D01*
G01X996100Y75000D02*
Y153740D01*
X1015570D01*
X1023360Y149800D01*
X1029200Y144550D01*
X1034070Y136680D01*
X1037970Y127490D01*
X1038940Y114370D01*
X1037970Y101250D01*
X1034070Y92060D01*
X1029200Y84180D01*
X1023360Y78940D01*
X1015570Y75000D01*
X996100D01*
G01X1076790Y153740D02*
Y75000D01*
X1115730D01*
G01X1156500Y140620D02*
X1162340Y148490D01*
X1169160Y152430D01*
X1176950Y153740D01*
X1186680Y151120D01*
X1193500Y144550D01*
X1195450Y136680D01*
X1194470Y128800D01*
X1190580Y122240D01*
X1171110Y109120D01*
X1162340Y99930D01*
X1156500Y86810D01*
X1154550Y75000D01*
X1195450D01*
G01X1224530Y48750D02*
X1282950D01*
G01X1308140Y75000D02*
X1332480Y153740D01*
X1356820Y75000D01*
G01X1348060Y102560D02*
X1316900D01*
G01X1550000Y1696550D02*
X1613500D01*
X1567990Y1721610D01*
Y1687750D01*
G01X1613500Y1648800D02*
X1611380Y1654220D01*
X1606090Y1658280D01*
X1599740Y1660990D01*
X1591270Y1663020D01*
X1581750Y1663700D01*
X1572220Y1663020D01*
X1563760Y1660990D01*
X1557410Y1658280D01*
X1552120Y1654220D01*
X1550000Y1648800D01*
X1552120Y1643380D01*
X1557410Y1639320D01*
X1563760Y1636610D01*
X1572220Y1634580D01*
X1581750Y1633900D01*
X1591270Y1634580D01*
X1599740Y1636610D01*
X1606090Y1639320D01*
X1611380Y1643380D01*
X1613500Y1648800D01*
G01X1557410Y1604440D02*
X1552120Y1599690D01*
X1550000Y1594270D01*
X1552120Y1588860D01*
X1558460Y1584110D01*
X1567990Y1580730D01*
X1577520Y1579370D01*
X1589160D01*
X1598680Y1580730D01*
X1607150Y1584110D01*
X1611380Y1588180D01*
X1613500Y1592920D01*
X1611380Y1598340D01*
X1607150Y1602400D01*
X1600800Y1605110D01*
X1592330Y1606470D01*
X1584930Y1605110D01*
X1577520Y1601730D01*
X1573280Y1597660D01*
X1572220Y1592920D01*
X1574340Y1587500D01*
X1579630Y1583440D01*
X1589160Y1579370D01*
G01X1547880Y1537040D02*
X1548940Y1538390D01*
X1551060D01*
X1552120Y1537040D01*
X1551060Y1535690D01*
X1548940D01*
X1547880Y1537040D01*
G01X1576460Y1494030D02*
X1583870Y1489290D01*
X1588100Y1485220D01*
X1590220Y1479810D01*
X1588100Y1475060D01*
X1583870Y1471680D01*
X1577520Y1468970D01*
X1570110Y1468290D01*
X1563760Y1468970D01*
X1557410Y1471680D01*
X1552120Y1475740D01*
X1550000Y1480480D01*
X1552120Y1485900D01*
X1558460Y1490640D01*
X1567990Y1493350D01*
X1578570Y1494030D01*
X1592330Y1492680D01*
X1599740Y1490640D01*
X1607150Y1487260D01*
X1612440Y1482510D01*
X1613500Y1477770D01*
X1611380Y1473030D01*
X1606090Y1469640D01*
G01X1613500Y1425280D02*
X1611380Y1430700D01*
X1606090Y1434760D01*
X1599740Y1437470D01*
X1591270Y1439500D01*
X1581750Y1440180D01*
X1572220Y1439500D01*
X1563760Y1437470D01*
X1557410Y1434760D01*
X1552120Y1430700D01*
X1550000Y1425280D01*
X1552120Y1419860D01*
X1557410Y1415800D01*
X1563760Y1413090D01*
X1572220Y1411060D01*
X1581750Y1410380D01*
X1591270Y1411060D01*
X1599740Y1413090D01*
X1606090Y1415800D01*
X1611380Y1419860D01*
X1613500Y1425280D01*
G01X1550000Y1389720D02*
X1592330D01*
G01X1580690D02*
X1585980Y1387690D01*
X1590220Y1384300D01*
X1592330Y1379560D01*
X1590220Y1374820D01*
X1585980Y1371430D01*
X1580690Y1369400D01*
X1550000D01*
G01X1580690D02*
X1585980Y1367370D01*
X1590220Y1363980D01*
X1592330Y1359240D01*
X1590220Y1354500D01*
X1585980Y1351110D01*
X1579630Y1349080D01*
X1550000D01*
G01Y1333840D02*
X1592330D01*
G01X1580690D02*
X1585980Y1331810D01*
X1590220Y1328420D01*
X1592330Y1323680D01*
X1590220Y1318940D01*
X1585980Y1315550D01*
X1580690Y1313520D01*
X1550000D01*
G01X1580690D02*
X1585980Y1311490D01*
X1590220Y1308100D01*
X1592330Y1303360D01*
X1590220Y1298620D01*
X1585980Y1295230D01*
X1579630Y1293200D01*
X1550000D01*
G01X1538360Y1258990D02*
X1552120Y1256290D01*
G01X1550000Y1145880D02*
X1613500D01*
X1600800Y1154010D01*
G01X1550000D02*
Y1137750D01*
G01X1571170Y1098810D02*
Y1081190D01*
G01X1550000Y1034120D02*
X1613500D01*
X1600800Y1042250D01*
G01X1550000D02*
Y1025990D01*
G01X1547880Y978240D02*
X1548940Y979590D01*
X1551060D01*
X1552120Y978240D01*
X1551060Y976890D01*
X1548940D01*
X1547880Y978240D01*
G01X1602920Y935230D02*
X1609270Y931170D01*
X1612440Y926420D01*
X1613500Y921010D01*
X1611380Y914230D01*
X1606090Y909490D01*
X1599740Y908140D01*
X1593390Y908810D01*
X1588100Y911520D01*
X1577520Y925070D01*
X1570110Y931170D01*
X1559520Y935230D01*
X1550000Y936580D01*
Y908140D01*
G01Y878000D02*
X1592330D01*
G01X1581750D02*
X1587040Y875290D01*
X1591270Y871220D01*
X1592330Y865800D01*
X1591270Y861060D01*
X1587040Y857000D01*
X1579630Y854960D01*
X1550000D01*
G01X1557410Y820760D02*
X1553170Y817370D01*
X1550000Y812630D01*
Y808570D01*
X1552120Y804500D01*
X1555290Y801790D01*
X1559520Y800440D01*
X1565880Y801120D01*
X1569050Y803830D01*
X1575400Y816020D01*
X1582810Y818730D01*
X1588100Y817370D01*
X1591270Y814660D01*
X1592330Y810600D01*
X1591270Y806540D01*
X1588100Y802470D01*
G01X1613500Y686650D02*
X1550000D01*
G01X1559520D02*
X1554230Y689360D01*
X1551060Y693420D01*
X1550000Y698160D01*
X1552120Y703580D01*
X1557410Y707650D01*
X1563760Y710360D01*
X1571170Y711030D01*
X1578570Y710360D01*
X1584930Y707650D01*
X1590220Y703580D01*
X1592330Y698160D01*
X1591270Y693420D01*
X1589160Y690030D01*
X1584930Y686650D01*
G01X1578570Y653120D02*
Y631440D01*
X1585980Y633480D01*
X1590220Y636860D01*
X1592330Y641610D01*
X1591270Y646350D01*
X1588100Y650410D01*
X1580690Y653120D01*
X1574340Y654480D01*
X1567990D01*
X1561640Y653120D01*
X1555290Y649730D01*
X1551060Y645670D01*
X1550000Y640930D01*
X1552120Y636190D01*
X1558460Y631440D01*
G01X1550000Y587080D02*
X1613500D01*
G01X1550000Y519010D02*
X1592330D01*
G01X1584930D02*
X1589160Y521720D01*
X1591270Y525780D01*
X1592330Y530520D01*
X1590220Y535260D01*
X1585980Y539330D01*
X1579630Y542040D01*
X1571170Y543390D01*
X1562700Y542040D01*
X1556350Y539330D01*
X1552120Y535260D01*
X1550000Y530520D01*
X1551060Y525780D01*
X1554230Y521720D01*
X1558460Y519010D01*
G01X1530950Y489540D02*
X1528830Y485480D01*
X1530950Y480060D01*
X1535180Y476670D01*
X1540480Y473970D01*
X1557410Y469900D01*
X1592330Y461100D01*
G01Y482770D02*
X1557410Y469900D01*
G01X1400000Y1696550D02*
X1463500D01*
X1417990Y1721610D01*
Y1687750D01*
G01X1463500Y1648800D02*
X1461380Y1654220D01*
X1456090Y1658280D01*
X1449740Y1660990D01*
X1441270Y1663020D01*
X1431750Y1663700D01*
X1422220Y1663020D01*
X1413760Y1660990D01*
X1407410Y1658280D01*
X1402120Y1654220D01*
X1400000Y1648800D01*
X1402120Y1643380D01*
X1407410Y1639320D01*
X1413760Y1636610D01*
X1422220Y1634580D01*
X1431750Y1633900D01*
X1441270Y1634580D01*
X1449740Y1636610D01*
X1456090Y1639320D01*
X1461380Y1643380D01*
X1463500Y1648800D01*
G01X1400000Y1592920D02*
X1401060Y1588180D01*
X1404230Y1582760D01*
X1409520Y1579370D01*
X1416930Y1578020D01*
X1424340Y1579370D01*
X1430690Y1583440D01*
X1433870Y1589530D01*
Y1596310D01*
X1435980Y1600370D01*
X1441270Y1603760D01*
X1448680Y1605110D01*
X1456090Y1603080D01*
X1461380Y1598340D01*
X1463500Y1592920D01*
X1461380Y1587500D01*
X1456090Y1582760D01*
X1448680Y1580730D01*
X1441270Y1582080D01*
X1435980Y1585470D01*
X1433870Y1589530D01*
Y1596310D01*
X1430690Y1602400D01*
X1424340Y1606470D01*
X1416930Y1607820D01*
X1409520Y1606470D01*
X1404230Y1603080D01*
X1401060Y1597660D01*
X1400000Y1592920D01*
G01X1397880Y1537040D02*
X1398940Y1538390D01*
X1401060D01*
X1402120Y1537040D01*
X1401060Y1535690D01*
X1398940D01*
X1397880Y1537040D01*
G01X1400000Y1482510D02*
X1413760Y1481160D01*
X1425400Y1479130D01*
X1435980Y1476420D01*
X1447620Y1473030D01*
X1463500Y1467610D01*
Y1494710D01*
G01X1409520Y1440180D02*
X1404230Y1436120D01*
X1401060Y1431380D01*
X1400000Y1425280D01*
X1402120Y1419180D01*
X1406350Y1414440D01*
X1413760Y1411060D01*
X1422220Y1410380D01*
X1430690Y1411730D01*
X1435980Y1415120D01*
X1440220Y1419860D01*
X1441270Y1424600D01*
X1440220Y1429340D01*
X1435980Y1435440D01*
X1463500Y1433410D01*
Y1415120D01*
G01X1400000Y1389720D02*
X1442330D01*
G01X1430690D02*
X1435980Y1387690D01*
X1440220Y1384300D01*
X1442330Y1379560D01*
X1440220Y1374820D01*
X1435980Y1371430D01*
X1430690Y1369400D01*
X1400000D01*
G01X1430690D02*
X1435980Y1367370D01*
X1440220Y1363980D01*
X1442330Y1359240D01*
X1440220Y1354500D01*
X1435980Y1351110D01*
X1429630Y1349080D01*
X1400000D01*
G01Y1333840D02*
X1442330D01*
G01X1430690D02*
X1435980Y1331810D01*
X1440220Y1328420D01*
X1442330Y1323680D01*
X1440220Y1318940D01*
X1435980Y1315550D01*
X1430690Y1313520D01*
X1400000D01*
G01X1430690D02*
X1435980Y1311490D01*
X1440220Y1308100D01*
X1442330Y1303360D01*
X1440220Y1298620D01*
X1435980Y1295230D01*
X1429630Y1293200D01*
X1400000D01*
G01X1388360Y1258990D02*
X1402120Y1256290D01*
G01X1452920Y1158750D02*
X1459270Y1154690D01*
X1462440Y1149940D01*
X1463500Y1144530D01*
X1461380Y1137750D01*
X1456090Y1133010D01*
X1449740Y1131660D01*
X1443390Y1132330D01*
X1438100Y1135040D01*
X1427520Y1148590D01*
X1420110Y1154690D01*
X1409520Y1158750D01*
X1400000Y1160100D01*
Y1131660D01*
G01X1421170Y1098810D02*
Y1081190D01*
G01X1452920Y1046990D02*
X1459270Y1042930D01*
X1462440Y1038180D01*
X1463500Y1032770D01*
X1461380Y1025990D01*
X1456090Y1021250D01*
X1449740Y1019900D01*
X1443390Y1020570D01*
X1438100Y1023280D01*
X1427520Y1036830D01*
X1420110Y1042930D01*
X1409520Y1046990D01*
X1400000Y1048340D01*
Y1019900D01*
G01X1397880Y978240D02*
X1398940Y979590D01*
X1401060D01*
X1402120Y978240D01*
X1401060Y976890D01*
X1398940D01*
X1397880Y978240D01*
G01X1452920Y935230D02*
X1459270Y931170D01*
X1462440Y926420D01*
X1463500Y921010D01*
X1461380Y914230D01*
X1456090Y909490D01*
X1449740Y908140D01*
X1443390Y908810D01*
X1438100Y911520D01*
X1427520Y925070D01*
X1420110Y931170D01*
X1409520Y935230D01*
X1400000Y936580D01*
Y908140D01*
G01Y878000D02*
X1442330D01*
G01X1431750D02*
X1437040Y875290D01*
X1441270Y871220D01*
X1442330Y865800D01*
X1441270Y861060D01*
X1437040Y857000D01*
X1429630Y854960D01*
X1400000D01*
G01X1407410Y820760D02*
X1403170Y817370D01*
X1400000Y812630D01*
Y808570D01*
X1402120Y804500D01*
X1405290Y801790D01*
X1409520Y800440D01*
X1415880Y801120D01*
X1419050Y803830D01*
X1425400Y816020D01*
X1432810Y818730D01*
X1438100Y817370D01*
X1441270Y814660D01*
X1442330Y810600D01*
X1441270Y806540D01*
X1438100Y802470D01*
G01X1463500Y686650D02*
X1400000D01*
G01X1409520D02*
X1404230Y689360D01*
X1401060Y693420D01*
X1400000Y698160D01*
X1402120Y703580D01*
X1407410Y707650D01*
X1413760Y710360D01*
X1421170Y711030D01*
X1428570Y710360D01*
X1434930Y707650D01*
X1440220Y703580D01*
X1442330Y698160D01*
X1441270Y693420D01*
X1439160Y690030D01*
X1434930Y686650D01*
G01X1428570Y653120D02*
Y631440D01*
X1435980Y633480D01*
X1440220Y636860D01*
X1442330Y641610D01*
X1441270Y646350D01*
X1438100Y650410D01*
X1430690Y653120D01*
X1424340Y654480D01*
X1417990D01*
X1411640Y653120D01*
X1405290Y649730D01*
X1401060Y645670D01*
X1400000Y640930D01*
X1402120Y636190D01*
X1408460Y631440D01*
G01X1400000Y587080D02*
X1463500D01*
G01X1400000Y519010D02*
X1442330D01*
G01X1434930D02*
X1439160Y521720D01*
X1441270Y525780D01*
X1442330Y530520D01*
X1440220Y535260D01*
X1435980Y539330D01*
X1429630Y542040D01*
X1421170Y543390D01*
X1412700Y542040D01*
X1406350Y539330D01*
X1402120Y535260D01*
X1400000Y530520D01*
X1401060Y525780D01*
X1404230Y521720D01*
X1408460Y519010D01*
G01X1380950Y489540D02*
X1378830Y485480D01*
X1380950Y480060D01*
X1385180Y476670D01*
X1390480Y473970D01*
X1407410Y469900D01*
X1442330Y461100D01*
G01Y482770D02*
X1407410Y469900D01*
G01X1408130Y2153830D02*
Y2217330D01*
G01Y2207810D02*
X1411510Y2213100D01*
X1414900Y2216270D01*
X1420320Y2217330D01*
X1425060Y2216270D01*
X1429800Y2210980D01*
X1431840Y2203570D01*
X1432510Y2196170D01*
X1431840Y2188760D01*
X1429800Y2181350D01*
X1425740Y2177120D01*
X1420320Y2175000D01*
X1415580Y2176060D01*
X1410840Y2179230D01*
X1408130Y2183460D01*
G01X1487040Y2212040D02*
X1482300Y2216270D01*
X1478230Y2217330D01*
X1472810Y2215220D01*
X1468750Y2210980D01*
X1466040Y2203570D01*
X1465360Y2196170D01*
X1466040Y2188760D01*
X1468750Y2182410D01*
X1472810Y2177120D01*
X1478230Y2175000D01*
X1482970Y2177120D01*
X1487040Y2181350D01*
G01X1519890Y2175000D02*
Y2238500D01*
G01Y2206750D02*
X1523270Y2213100D01*
X1527340Y2216270D01*
X1531400Y2217330D01*
X1537500Y2215220D01*
X1541560Y2210980D01*
X1544270Y2203570D01*
Y2195110D01*
X1542920Y2186640D01*
X1540210Y2180290D01*
X1535470Y2176060D01*
X1531400Y2175000D01*
X1527340Y2176060D01*
X1523270Y2179230D01*
X1519890Y2184520D01*
G01X1656030Y2238500D02*
Y2175000D01*
G01Y2184520D02*
X1653320Y2179230D01*
X1649260Y2176060D01*
X1644520Y2175000D01*
X1639100Y2177120D01*
X1635030Y2182410D01*
X1632320Y2188760D01*
X1631650Y2196170D01*
X1632320Y2203570D01*
X1635030Y2209930D01*
X1639100Y2215220D01*
X1644520Y2217330D01*
X1649260Y2216270D01*
X1652650Y2214160D01*
X1656030Y2209930D01*
G01X1689560Y2203570D02*
X1711240D01*
X1709200Y2210980D01*
X1705820Y2215220D01*
X1701070Y2217330D01*
X1696330Y2216270D01*
X1692270Y2213100D01*
X1689560Y2205690D01*
X1688200Y2199340D01*
Y2192990D01*
X1689560Y2186640D01*
X1692950Y2180290D01*
X1697010Y2176060D01*
X1701750Y2175000D01*
X1706490Y2177120D01*
X1711240Y2183460D01*
G01X1755600Y2175000D02*
Y2238500D01*
G01X1823670Y2175000D02*
Y2217330D01*
G01Y2209930D02*
X1820960Y2214160D01*
X1816900Y2216270D01*
X1812160Y2217330D01*
X1807420Y2215220D01*
X1803350Y2210980D01*
X1800640Y2204630D01*
X1799290Y2196170D01*
X1800640Y2187700D01*
X1803350Y2181350D01*
X1807420Y2177120D01*
X1812160Y2175000D01*
X1816900Y2176060D01*
X1820960Y2179230D01*
X1823670Y2183460D01*
G01X1853140Y2155950D02*
X1857200Y2153830D01*
X1862620Y2155950D01*
X1866010Y2160180D01*
X1868710Y2165480D01*
X1872780Y2182410D01*
X1881580Y2217330D01*
G01X1859910D02*
X1872780Y2182410D01*
G01X1966930Y2153830D02*
Y2217330D01*
G01Y2207810D02*
X1970310Y2213100D01*
X1973700Y2216270D01*
X1979120Y2217330D01*
X1983860Y2216270D01*
X1988600Y2210980D01*
X1990640Y2203570D01*
X1991310Y2196170D01*
X1990640Y2188760D01*
X1988600Y2181350D01*
X1984540Y2177120D01*
X1979120Y2175000D01*
X1974380Y2176060D01*
X1969640Y2179230D01*
X1966930Y2183460D01*
G01X2025520Y2175000D02*
Y2217330D01*
G01Y2208870D02*
X2028900Y2213100D01*
X2032290Y2216270D01*
X2037030Y2217330D01*
X2040420Y2216270D01*
X2044480Y2213100D01*
G01X2090880Y2175000D02*
X2086820Y2176060D01*
X2082750Y2180290D01*
X2080040Y2187700D01*
X2078690Y2196170D01*
X2080040Y2204630D01*
X2082750Y2212040D01*
X2086820Y2216270D01*
X2090880Y2217330D01*
X2094940Y2216270D01*
X2099010Y2212040D01*
X2101720Y2204630D01*
X2102400Y2196170D01*
X2101720Y2187700D01*
X2099010Y2180290D01*
X2094940Y2176060D01*
X2090880Y2175000D01*
G01X2146760Y2238500D02*
Y2175000D01*
G01X2137280Y2217330D02*
X2156240D01*
G01X2202640Y2175000D02*
X2198580Y2176060D01*
X2194510Y2180290D01*
X2191800Y2187700D01*
X2190450Y2196170D01*
X2191800Y2204630D01*
X2194510Y2212040D01*
X2198580Y2216270D01*
X2202640Y2217330D01*
X2206700Y2216270D01*
X2210770Y2212040D01*
X2213480Y2204630D01*
X2214160Y2196170D01*
X2213480Y2187700D01*
X2210770Y2180290D01*
X2206700Y2176060D01*
X2202640Y2175000D01*
G01X1406770Y2075000D02*
Y2138500D01*
X1423710D01*
X1429130Y2135320D01*
X1432510Y2131090D01*
X1433870Y2122620D01*
X1432510Y2114160D01*
X1428450Y2108870D01*
X1423710Y2105690D01*
X1406770D01*
G01X1423710D02*
X1433870Y2075000D01*
G01X1489750D02*
X1462650D01*
Y2138500D01*
X1489750D01*
G01X1478910Y2107810D02*
X1462650D01*
G01X1515150Y2138500D02*
X1532080Y2075000D01*
X1549010Y2138500D01*
G01X1643840Y2075000D02*
Y2138500D01*
X1635710Y2125800D01*
G01Y2075000D02*
X1651970D01*
G01X1699720Y2072880D02*
X1698370Y2073940D01*
Y2076060D01*
X1699720Y2077120D01*
X1701070Y2076060D01*
Y2073940D01*
X1699720Y2072880D01*
G01X1755600Y2138500D02*
X1750180Y2136380D01*
X1746120Y2131090D01*
X1743410Y2124740D01*
X1741380Y2116270D01*
X1740700Y2106750D01*
X1741380Y2097220D01*
X1743410Y2088760D01*
X1746120Y2082410D01*
X1750180Y2077120D01*
X1755600Y2075000D01*
X1761020Y2077120D01*
X1765080Y2082410D01*
X1767790Y2088760D01*
X1769820Y2097220D01*
X1770500Y2106750D01*
X1769820Y2116270D01*
X1767790Y2124740D01*
X1765080Y2131090D01*
X1761020Y2136380D01*
X1755600Y2138500D01*
G01X1408800Y1875000D02*
Y1938500D01*
G01Y1907810D02*
X1412190Y1913100D01*
X1415580Y1916270D01*
X1421000Y1917330D01*
X1425060Y1916270D01*
X1429800Y1912040D01*
X1431840Y1905690D01*
Y1875000D01*
G01X1476200Y1938500D02*
Y1875000D01*
G01X1466720Y1917330D02*
X1485680D01*
G01X1532080Y1938500D02*
Y1875000D01*
G01X1522600Y1917330D02*
X1541560D01*
G01X1575770Y1853830D02*
Y1917330D01*
G01Y1907810D02*
X1579150Y1913100D01*
X1582540Y1916270D01*
X1587960Y1917330D01*
X1592700Y1916270D01*
X1597440Y1910980D01*
X1599480Y1903570D01*
X1600150Y1896170D01*
X1599480Y1888760D01*
X1597440Y1881350D01*
X1593380Y1877120D01*
X1587960Y1875000D01*
X1583220Y1876060D01*
X1578480Y1879230D01*
X1575770Y1883460D01*
G01X1643840Y1872880D02*
X1642490Y1873940D01*
Y1876060D01*
X1643840Y1877120D01*
X1645190Y1876060D01*
Y1873940D01*
X1643840Y1872880D01*
G01Y1901460D02*
X1642490Y1902520D01*
Y1904630D01*
X1643840Y1905690D01*
X1645190Y1904630D01*
Y1902520D01*
X1643840Y1901460D01*
G01X1687530Y1872880D02*
X1711910Y1938500D01*
G01X1743410Y1872880D02*
X1767790Y1938500D01*
G01X1811480Y1917330D02*
Y1875000D01*
G01Y1934270D02*
X1810130Y1935320D01*
Y1937440D01*
X1811480Y1938500D01*
X1812830Y1937440D01*
Y1935320D01*
X1811480Y1934270D01*
G01X1856520Y1859120D02*
X1861260Y1854890D01*
X1865330Y1853830D01*
X1870750Y1855950D01*
X1874810Y1861240D01*
X1876840Y1870770D01*
Y1917330D01*
G01Y1934270D02*
X1875490Y1935320D01*
Y1937440D01*
X1876840Y1938500D01*
X1878200Y1937440D01*
Y1935320D01*
X1876840Y1934270D01*
G01X1913080Y1882410D02*
X1916470Y1878170D01*
X1921210Y1875000D01*
X1925270D01*
X1929340Y1877120D01*
X1932050Y1880290D01*
X1933400Y1884520D01*
X1932720Y1890880D01*
X1930010Y1894050D01*
X1917820Y1900400D01*
X1915110Y1907810D01*
X1916470Y1913100D01*
X1919180Y1916270D01*
X1923240Y1917330D01*
X1927300Y1916270D01*
X1931370Y1913100D01*
G01X1975060Y1875000D02*
Y1928980D01*
X1976410Y1934270D01*
X1979120Y1937440D01*
X1983180Y1938500D01*
X1987250Y1936380D01*
X1989280Y1931090D01*
G01X1981150Y1913100D02*
X1967600D01*
G01X2035000Y1872880D02*
X2033650Y1873940D01*
Y1876060D01*
X2035000Y1877120D01*
X2036350Y1876060D01*
Y1873940D01*
X2035000Y1872880D01*
G01X2079360Y1875000D02*
Y1917330D01*
G01Y1906750D02*
X2082070Y1912040D01*
X2086140Y1916270D01*
X2091560Y1917330D01*
X2096300Y1916270D01*
X2100360Y1912040D01*
X2102400Y1904630D01*
Y1875000D01*
G01X2146760D02*
Y1938500D01*
G01X2046100Y75000D02*
Y153740D01*
X2065570D01*
X2073360Y149800D01*
X2079200Y144550D01*
X2084070Y136680D01*
X2087970Y127490D01*
X2088940Y114370D01*
X2087970Y101250D01*
X2084070Y92060D01*
X2079200Y84180D01*
X2073360Y78940D01*
X2065570Y75000D01*
X2046100D01*
G01X2126790Y153740D02*
Y75000D01*
X2165730D01*
G01X2225000D02*
Y153740D01*
X2213320Y137990D01*
G01Y75000D02*
X2236680D01*
G01X2274530Y48750D02*
X2332950D01*
G01X2358140Y75000D02*
X2382480Y153740D01*
X2406820Y75000D01*
G01X2398060Y102560D02*
X2366900D01*
G54D12*
G01X98000Y173000D02*
Y427000D01*
X352000D01*
Y173000D01*
X98000D01*
G01X1098000D02*
Y427000D01*
X1352000D01*
Y173000D01*
X1098000D01*
G01X2148000D02*
Y427000D01*
X2402000D01*
Y173000D01*
X2148000D01*
G01X1648000D02*
Y427000D01*
X1902000D01*
Y173000D01*
X1648000D01*
M02*
